# Blender v2.80 (sub 75) OBJ File: 'Drone_Concepts.blend'
# www.blender.org
mtllib Nozzle.mtl
o Sphere.002
v 0.000000 -0.744148 -0.265333
v 0.000000 -0.875294 -0.352962
v 0.000000 -1.184689 -0.352962
v 0.059200 -0.656519 -0.122412
v 0.109388 -0.744148 -0.243575
v 0.142922 -0.875294 -0.324534
v 0.154697 -1.029991 -0.352962
v 0.142922 -1.184689 -0.324534
v 0.109388 -1.315835 -0.243575
v 0.109388 -0.656519 -0.088877
v 0.202122 -0.744148 -0.181612
v 0.264085 -0.875294 -0.243575
v 0.285843 -1.029991 -0.265333
v 0.264085 -1.184689 -0.243575
v 0.202122 -1.315835 -0.181612
v 0.142922 -0.656519 -0.038690
v 0.264085 -0.744148 -0.088877
v 0.345044 -0.875294 -0.122412
v 0.373473 -1.029991 -0.134187
v 0.345044 -1.184689 -0.122412
v 0.264085 -1.315835 -0.088877
v 0.154697 -0.656519 0.020510
v 0.285843 -0.744148 0.020510
v 0.373472 -0.875294 0.020510
v 0.404244 -1.029991 0.020510
v 0.373472 -1.184689 0.020510
v 0.285843 -1.315835 0.020510
v 0.142922 -0.656519 0.079710
v 0.264085 -0.744148 0.129898
v 0.345044 -0.875294 0.163432
v 0.373472 -1.029991 0.175207
v 0.345044 -1.184689 0.163432
v 0.264085 -1.315835 0.129898
v 0.109388 -0.656519 0.129898
v 0.202122 -0.744148 0.222632
v 0.264085 -0.875294 0.284595
v 0.285843 -1.029991 0.306354
v 0.264085 -1.184689 0.284595
v 0.202122 -1.315835 0.222632
v 0.059200 -0.656519 0.163432
v 0.109387 -0.744148 0.284595
v 0.142922 -0.875294 0.365554
v 0.154697 -1.029991 0.393983
v 0.142922 -1.184689 0.365554
v 0.109387 -1.315835 0.284595
v -0.000000 -0.656519 0.175207
v -0.000000 -0.744148 0.306353
v -0.000000 -0.875294 0.393983
v -0.000000 -1.029991 0.424754
v -0.000000 -1.184689 0.393983
v -0.000000 -1.315835 0.306353
v -0.059200 -0.656519 0.163432
v -0.109388 -0.744148 0.284595
v -0.142922 -0.875294 0.365554
v -0.154697 -1.029991 0.393982
v -0.142922 -1.184689 0.365554
v -0.109388 -1.315835 0.284595
v -0.109388 -0.656519 0.129898
v -0.202122 -0.744148 0.222632
v -0.264085 -0.875294 0.284595
v -0.285844 -1.029991 0.306353
v -0.264085 -1.184689 0.284595
v -0.202122 -1.315835 0.222632
v -0.142922 -0.656519 0.079710
v -0.264085 -0.744148 0.129897
v -0.345044 -0.875294 0.163432
v -0.373473 -1.029991 0.175207
v -0.345044 -1.184689 0.163432
v -0.264085 -1.315835 0.129897
v -0.154697 -0.656519 0.020510
v -0.285843 -0.744148 0.020510
v -0.373472 -0.875294 0.020510
v -0.404244 -1.029991 0.020510
v -0.373472 -1.184689 0.020510
v -0.285843 -1.315835 0.020510
v -0.142922 -0.656519 -0.038690
v -0.264085 -0.744148 -0.088878
v -0.345044 -0.875294 -0.122412
v -0.373472 -1.029991 -0.134187
v -0.345044 -1.184689 -0.122412
v -0.264085 -1.315835 -0.088878
v -0.109387 -0.656519 -0.088877
v -0.202122 -0.744148 -0.181612
v -0.264085 -0.875294 -0.243575
v -0.285843 -1.029991 -0.265334
v -0.264085 -1.184689 -0.243575
v -0.202122 -1.315835 -0.181612
v -0.059200 -0.656519 -0.122412
v -0.109387 -0.744148 -0.243575
v -0.142921 -0.875294 -0.324534
v -0.154697 -1.029991 -0.352962
v -0.142921 -1.184689 -0.324534
v -0.109387 -1.315835 -0.243575
v 0.000000 -0.625748 0.020510
v 0.000000 -0.656519 -0.134187
v 0.000000 -1.029991 -0.383734
v 0.000000 -1.315835 -0.265333
v 0.230742 -1.854475 -0.536551
v 0.032722 -1.717935 -0.058487
v 0.000000 -1.717935 -0.064996
v 0.426356 -1.854475 -0.405846
v 0.060462 -1.717935 -0.039952
v 0.557061 -1.854475 -0.210232
v 0.078997 -1.717935 -0.012212
v 0.602959 -1.854475 0.020510
v 0.085506 -1.717935 0.020510
v 0.557061 -1.854475 0.251252
v 0.078997 -1.717935 0.053232
v 0.426356 -1.854475 0.446866
v 0.060462 -1.717935 0.080972
v 0.230742 -1.854475 0.577571
v 0.032722 -1.717935 0.099507
v -0.000000 -1.854475 0.623469
v -0.000000 -1.717935 0.106016
v -0.230743 -1.854475 0.577571
v -0.032722 -1.717935 0.099507
v -0.426356 -1.854475 0.446866
v -0.060462 -1.717935 0.080972
v -0.557061 -1.854475 0.251252
v -0.078997 -1.717935 0.053232
v -0.602959 -1.854475 0.020510
v -0.085506 -1.717935 0.020510
v -0.557061 -1.854475 -0.210232
v -0.078997 -1.717935 -0.012212
v -0.426356 -1.854475 -0.405846
v -0.060462 -1.717935 -0.039952
v -0.230742 -1.854475 -0.536551
v -0.032722 -1.717935 -0.058487
v 0.000000 -1.854475 -0.582448
v -0.000000 -1.914549 -0.450341
v 0.180187 -1.914549 -0.414499
v 0.332942 -1.914549 -0.312432
v 0.435009 -1.914549 -0.159677
v 0.470851 -1.914549 0.020510
v 0.435009 -1.914549 0.200697
v 0.332942 -1.914549 0.353452
v 0.180187 -1.914549 0.455520
v -0.000000 -1.914549 0.491361
v -0.180187 -1.914549 0.455519
v -0.332942 -1.914549 0.353452
v -0.435010 -1.914549 0.200697
v -0.470851 -1.914549 0.020510
v -0.435009 -1.914549 -0.159677
v -0.332942 -1.914549 -0.312432
v -0.180187 -1.914549 -0.414499
v 0.000000 -1.526531 -0.132480
v -0.000000 -1.555599 0.020510
v 0.058547 -1.526531 -0.120834
v 0.108180 -1.526531 -0.087670
v 0.141344 -1.526531 -0.038037
v 0.152990 -1.526531 0.020510
v 0.141344 -1.526531 0.079057
v 0.108180 -1.526531 0.128690
v 0.058547 -1.526531 0.161854
v -0.000000 -1.526531 0.173500
v -0.058547 -1.526531 0.161854
v -0.108180 -1.526531 0.128690
v -0.141344 -1.526531 0.079057
v -0.152990 -1.526531 0.020510
v -0.141344 -1.526531 -0.038037
v -0.108180 -1.526531 -0.087670
v -0.058547 -1.526531 -0.120834
vt 0.750000 0.625000
vt 0.750000 0.750000
vt 0.687500 0.750000
vt 0.687500 0.625000
vt 0.750000 0.875000
vt 0.718750 1.000000
vt 0.687500 0.875000
vt 0.750000 0.250000
vt 0.750000 0.375000
vt 0.687500 0.375000
vt 0.687500 0.250000
vt 0.750000 0.500000
vt 0.687500 0.500000
vt 0.625000 0.375000
vt 0.625000 0.250000
vt 0.625000 0.625000
vt 0.625000 0.500000
vt 0.625000 0.875000
vt 0.625000 0.750000
vt 0.656250 1.000000
vt 0.562500 0.500000
vt 0.562500 0.375000
vt 0.562500 0.750000
vt 0.562500 0.625000
vt 0.593750 1.000000
vt 0.562500 0.875000
vt 0.562500 0.250000
vt 0.500000 0.500000
vt 0.500000 0.375000
vt 0.500000 0.750000
vt 0.500000 0.625000
vt 0.531250 1.000000
vt 0.500000 0.875000
vt 0.500000 0.250000
vt 0.437500 0.375000
vt 0.437500 0.250000
vt 0.437500 0.625000
vt 0.437500 0.500000
vt 0.437500 0.875000
vt 0.437500 0.750000
vt 0.468750 1.000000
vt 0.375000 0.625000
vt 0.375000 0.500000
vt 0.375000 0.875000
vt 0.375000 0.750000
vt 0.375000 0.375000
vt 0.406250 1.000000
vt 0.375000 0.250000
vt 0.312500 0.500000
vt 0.312500 0.375000
vt 0.312500 0.750000
vt 0.312500 0.625000
vt 0.343750 1.000000
vt 0.312500 0.875000
vt 0.312500 0.250000
vt 0.250000 0.750000
vt 0.250000 0.625000
vt 0.281250 1.000000
vt 0.250000 0.875000
vt 0.250000 0.375000
vt 0.250000 0.250000
vt 0.250000 0.500000
vt 0.875000 0.250000
vt 0.812500 0.250000
vt 0.812500 0.250000
vt 0.875000 0.250000
vt 0.187500 0.375000
vt 0.187500 0.250000
vt 0.187500 0.625000
vt 0.187500 0.500000
vt 0.187500 0.875000
vt 0.187500 0.750000
vt 0.687500 0.250000
vt 0.750000 0.250000
vt 0.218750 1.000000
vt 0.125000 0.875000
vt 0.125000 0.750000
vt 0.125000 0.250000
vt 0.125000 0.250000
vt 0.187500 0.250000
vt 0.125000 0.500000
vt 0.125000 0.375000
vt 0.125000 0.625000
vt 0.156250 1.000000
vt 0.250000 0.250000
vt 0.437500 0.250000
vt 0.500000 0.250000
vt 0.062500 0.500000
vt 0.062500 0.375000
vt 0.062500 0.750000
vt 0.062500 0.625000
vt 0.093750 1.000000
vt 0.062500 0.875000
vt 1.000000 0.250000
vt 0.937500 0.250000
vt 0.937500 0.250000
vt 1.000000 0.250000
vt 0.062500 0.250000
vt 0.031250 1.000000
vt 0.000000 0.875000
vt 0.562500 0.250000
vt 0.000000 0.375000
vt 0.000000 0.250000
vt 0.000000 0.625000
vt 0.000000 0.500000
vt 0.000000 0.750000
vt 1.000000 0.375000
vt 0.937500 0.375000
vt 1.000000 0.500000
vt 1.000000 0.625000
vt 0.937500 0.625000
vt 0.937500 0.500000
vt 1.000000 0.750000
vt 1.000000 0.875000
vt 0.937500 0.875000
vt 0.937500 0.750000
vt 0.312500 0.250000
vt 0.968750 1.000000
vt 0.625000 0.250000
vt 0.062500 0.250000
vt 0.875000 0.500000
vt 0.875000 0.375000
vt 0.875000 0.750000
vt 0.875000 0.625000
vt 0.906250 1.000000
vt 0.875000 0.875000
vt 0.375000 0.250000
vt 0.812500 0.500000
vt 0.812500 0.375000
vt 0.812500 0.750000
vt 0.812500 0.625000
vt 0.843750 1.000000
vt 0.812500 0.875000
vt 0.000000 0.250000
vt 0.781250 1.000000
vt 0.170901 0.058501
vt 0.108401 0.058501
vt 0.108401 0.058501
vt 0.170901 0.058501
vt 0.750000 0.125000
vt 0.687500 0.125000
vt 0.625000 0.125000
vt 0.670901 0.058501
vt 0.608401 0.058501
vt 0.608401 0.058501
vt 0.670901 0.058501
vt 0.562500 0.125000
vt 0.233401 0.058501
vt 0.233401 0.058501
vt 0.795901 0.058501
vt 0.766599 0.058501
vt 0.766599 0.058501
vt 0.795901 0.058501
vt 0.500000 0.125000
vt 0.437500 0.125000
vt 0.375000 0.125000
vt 0.295901 0.058501
vt 0.295901 0.058501
vt 0.312500 0.125000
vt 0.858401 0.058501
vt 0.858401 0.058501
vt 0.358401 0.058501
vt 0.358401 0.058501
vt 0.250000 0.125000
vt 0.920901 0.058501
vt 0.920901 0.058501
vt 0.187500 0.125000
vt 0.125000 0.125000
vt 0.420901 0.058501
vt 0.420901 0.058501
vt 0.062500 0.125000
vt 0.983401 0.058501
vt 0.983401 0.058501
vt 0.483401 0.058501
vt 0.483401 0.058501
vt 0.000000 0.125000
vt 1.000000 0.125000
vt 0.937500 0.125000
vt 0.045901 0.058501
vt 0.016599 0.058501
vt 0.016599 0.058501
vt 0.045901 0.058501
vt 0.875000 0.125000
vt 0.545901 0.058501
vt 0.545901 0.058501
vt 0.812500 0.125000
vt 0.718750 0.000000
vt 0.656250 0.000000
vt 0.593750 0.000000
vt 0.531250 0.000000
vt 0.468750 0.000000
vt 0.406250 0.000000
vt 0.343750 0.000000
vt 0.281250 0.000000
vt 0.218750 0.000000
vt 0.156250 0.000000
vt 0.093750 0.000000
vt 0.031250 0.000000
vt 0.968750 0.000000
vt 0.906250 0.000000
vt 0.843750 0.000000
vt 0.781250 0.000000
vn 0.1632 0.5481 -0.8203
vn 0.0388 0.9800 -0.1949
vn 0.1632 -0.5481 -0.8203
vn 0.1915 0.1915 -0.9626
vn 0.1098 0.8264 -0.5522
vn 0.1915 -0.1915 -0.9626
vn 0.4647 -0.5481 -0.6954
vn 0.5453 0.1915 -0.8161
vn 0.3128 0.8264 -0.4681
vn 0.5453 -0.1915 -0.8161
vn 0.4647 0.5481 -0.6954
vn 0.1104 0.9800 -0.1653
vn 0.8161 -0.1915 -0.5453
vn 0.6954 0.5481 -0.4647
vn 0.1653 0.9800 -0.1104
vn 0.6954 -0.5481 -0.4647
vn 0.8161 0.1915 -0.5453
vn 0.4681 0.8264 -0.3128
vn 0.9626 -0.1915 -0.1915
vn 0.8203 0.5481 -0.1632
vn 0.1949 0.9800 -0.0388
vn 0.8203 -0.5481 -0.1632
vn 0.9626 0.1915 -0.1915
vn 0.5522 0.8264 -0.1098
vn 0.8203 -0.5481 0.1632
vn 0.9626 0.1915 0.1915
vn 0.5522 0.8264 0.1098
vn 0.9626 -0.1915 0.1915
vn 0.8203 0.5481 0.1632
vn 0.1949 0.9800 0.0388
vn 0.8161 0.1915 0.5453
vn 0.4681 0.8264 0.3128
vn 0.8161 -0.1915 0.5453
vn 0.6954 0.5481 0.4647
vn 0.1653 0.9800 0.1104
vn 0.6954 -0.5481 0.4647
vn 0.5453 -0.1915 0.8161
vn 0.4647 0.5481 0.6954
vn 0.1104 0.9800 0.1653
vn 0.4647 -0.5481 0.6954
vn 0.5453 0.1915 0.8161
vn 0.3128 0.8264 0.4681
vn 0.1632 0.5481 0.8203
vn 0.0388 0.9800 0.1949
vn 0.1632 -0.5481 0.8203
vn 0.1915 0.1915 0.9626
vn 0.1098 0.8264 0.5522
vn 0.1915 -0.1915 0.9626
vn -0.4811 0.5000 -0.7201
vn -0.1632 -0.5481 0.8203
vn -0.1915 0.1915 0.9626
vn -0.1098 0.8264 0.5522
vn 0.1689 0.5000 -0.8494
vn -0.1915 -0.1915 0.9626
vn -0.1632 0.5481 0.8203
vn -0.0388 0.9800 0.1949
vn -0.3128 0.8264 0.4681
vn -0.4811 0.5000 0.7201
vn -0.5453 -0.1915 0.8161
vn -0.4647 0.5481 0.6954
vn -0.1104 0.9800 0.1653
vn -0.1689 0.5000 0.8494
vn -0.4647 -0.5481 0.6954
vn -0.5453 0.1915 0.8161
vn 0.8494 0.5000 0.1689
vn -0.8161 -0.1915 0.5453
vn -0.6954 0.5481 0.4647
vn -0.1653 0.9800 0.1104
vn -0.8494 0.5000 -0.1689
vn -0.6954 -0.5481 0.4647
vn -0.8161 0.1915 0.5453
vn -0.4681 0.8264 0.3128
vn -0.1949 0.9800 0.0388
vn 0.8494 0.5000 -0.1689
vn -0.8203 -0.5481 0.1632
vn -0.9626 0.1915 0.1915
vn -0.5522 0.8264 0.1098
vn -0.7201 0.5000 -0.4811
vn -0.9626 -0.1915 0.1915
vn -0.8203 0.5481 0.1632
vn -0.8203 -0.5481 -0.1632
vn -0.9626 0.1915 -0.1915
vn -0.5522 0.8264 -0.1098
vn 0.1689 0.5000 0.8494
vn -0.9626 -0.1915 -0.1915
vn -0.8203 0.5481 -0.1632
vn -0.1949 0.9800 -0.0388
vn 0.4811 0.5000 -0.7201
vn -0.7201 0.5000 0.4811
vn -0.8161 -0.1915 -0.5453
vn -0.6954 0.5481 -0.4647
vn -0.1653 0.9800 -0.1104
vn 0.4811 0.5000 0.7201
vn -0.6954 -0.5481 -0.4647
vn -0.8161 0.1915 -0.5453
vn -0.4681 0.8264 -0.3128
vn -0.5453 -0.1915 -0.8161
vn -0.4647 0.5481 -0.6954
vn -0.1104 0.9800 -0.1653
vn -0.1689 0.5000 -0.8494
vn -0.4647 -0.5481 -0.6954
vn -0.5453 0.1915 -0.8161
vn -0.3128 0.8264 -0.4681
vn 0.7201 0.5000 -0.4811
vn -0.8494 0.5000 0.1689
vn -0.1632 -0.5481 -0.8203
vn -0.1915 0.1915 -0.9626
vn -0.1098 0.8264 -0.5522
vn 0.7201 0.5000 0.4811
vn -0.1915 -0.1915 -0.9626
vn -0.1632 0.5481 -0.8203
vn -0.0388 0.9800 -0.1949
vn 0.5251 0.3268 -0.7858
vn 0.0821 -0.9072 -0.4125
vn 0.2337 -0.9072 -0.3497
vn -0.5251 0.3268 0.7858
vn 0.3497 -0.9072 -0.2337
vn 0.1844 0.3268 -0.9269
vn 0.1844 0.3268 0.9269
vn 0.4125 -0.9072 -0.0821
vn -0.1844 0.3268 0.9269
vn 0.4125 -0.9072 0.0821
vn 0.3497 -0.9072 0.2337
vn -0.1844 0.3268 -0.9269
vn 0.2337 -0.9072 0.3497
vn 0.5251 0.3268 0.7858
vn -0.5251 0.3268 -0.7858
vn 0.0821 -0.9072 0.4125
vn 0.7858 0.3268 0.5251
vn -0.0821 -0.9072 0.4125
vn -0.2337 -0.9072 0.3497
vn -0.7858 0.3268 -0.5251
vn -0.3497 -0.9072 0.2337
vn 0.9269 0.3268 0.1844
vn -0.9269 0.3268 -0.1844
vn -0.4125 -0.9072 0.0821
vn -0.4125 -0.9072 -0.0821
vn 0.9269 0.3268 -0.1844
vn -0.3497 -0.9072 -0.2337
vn -0.9269 0.3268 0.1844
vn 0.7858 0.3268 -0.5251
vn -0.2337 -0.9072 -0.3497
vn -0.7858 0.3268 0.5251
vn -0.0821 -0.9072 -0.4125
vn -0.0900 -0.8871 0.4526
vn -0.2564 -0.8871 0.3837
vn -0.3837 -0.8871 0.2564
vn -0.4526 -0.8871 0.0900
vn -0.4526 -0.8871 -0.0900
vn -0.3837 -0.8871 -0.2564
vn -0.2564 -0.8871 -0.3837
vn -0.0900 -0.8871 -0.4526
vn 0.0900 -0.8871 -0.4526
vn 0.2564 -0.8871 -0.3837
vn 0.3837 -0.8871 -0.2564
vn 0.4526 -0.8871 -0.0900
vn 0.4526 -0.8871 0.0900
vn 0.3837 -0.8871 0.2564
vn 0.2564 -0.8871 0.3837
vn 0.0900 -0.8871 0.4526
vn 0.0371 -0.9817 -0.1865
vn 0.1057 -0.9817 -0.1581
vn 0.1581 -0.9817 -0.1057
vn 0.1865 -0.9817 -0.0371
vn 0.1865 -0.9817 0.0371
vn 0.1581 -0.9817 0.1057
vn 0.1057 -0.9817 0.1581
vn 0.0371 -0.9817 0.1865
vn -0.0371 -0.9817 0.1865
vn -0.1057 -0.9817 0.1581
vn -0.1581 -0.9817 0.1057
vn -0.1865 -0.9817 0.0371
vn -0.1865 -0.9817 -0.0371
vn -0.1581 -0.9817 -0.1057
vn -0.1057 -0.9817 -0.1581
vn -0.0371 -0.9817 -0.1865
usemtl None
s off
f 2/1/1 1/2/1 5/3/1 6/4/1
f 95/5/2 94/6/2 4/7/2
f 97/8/3 3/9/3 8/10/3 9/11/3
f 96/12/4 2/1/4 6/4/4 7/13/4
f 1/2/5 95/5/5 4/7/5 5/3/5
f 3/9/6 96/12/6 7/13/6 8/10/6
f 9/11/7 8/10/7 14/14/7 15/15/7
f 7/13/8 6/4/8 12/16/8 13/17/8
f 5/3/9 4/7/9 10/18/9 11/19/9
f 8/10/10 7/13/10 13/17/10 14/14/10
f 6/4/11 5/3/11 11/19/11 12/16/11
f 4/7/12 94/20/12 10/18/12
f 14/14/13 13/17/13 19/21/13 20/22/13
f 12/16/14 11/19/14 17/23/14 18/24/14
f 10/18/15 94/25/15 16/26/15
f 15/15/16 14/14/16 20/22/16 21/27/16
f 13/17/17 12/16/17 18/24/17 19/21/17
f 11/19/18 10/18/18 16/26/18 17/23/18
f 20/22/19 19/21/19 25/28/19 26/29/19
f 18/24/20 17/23/20 23/30/20 24/31/20
f 16/26/21 94/32/21 22/33/21
f 21/27/22 20/22/22 26/29/22 27/34/22
f 19/21/23 18/24/23 24/31/23 25/28/23
f 17/23/24 16/26/24 22/33/24 23/30/24
f 27/34/25 26/29/25 32/35/25 33/36/25
f 25/28/26 24/31/26 30/37/26 31/38/26
f 23/30/27 22/33/27 28/39/27 29/40/27
f 26/29/28 25/28/28 31/38/28 32/35/28
f 24/31/29 23/30/29 29/40/29 30/37/29
f 22/33/30 94/41/30 28/39/30
f 31/38/31 30/37/31 36/42/31 37/43/31
f 29/40/32 28/39/32 34/44/32 35/45/32
f 32/35/33 31/38/33 37/43/33 38/46/33
f 30/37/34 29/40/34 35/45/34 36/42/34
f 28/39/35 94/47/35 34/44/35
f 33/36/36 32/35/36 38/46/36 39/48/36
f 38/46/37 37/43/37 43/49/37 44/50/37
f 36/42/38 35/45/38 41/51/38 42/52/38
f 34/44/39 94/53/39 40/54/39
f 39/48/40 38/46/40 44/50/40 45/55/40
f 37/43/41 36/42/41 42/52/41 43/49/41
f 35/45/42 34/44/42 40/54/42 41/51/42
f 42/52/43 41/51/43 47/56/43 48/57/43
f 40/54/44 94/58/44 46/59/44
f 45/55/45 44/50/45 50/60/45 51/61/45
f 43/49/46 42/52/46 48/57/46 49/62/46
f 41/51/47 40/54/47 46/59/47 47/56/47
f 44/50/48 43/49/48 49/62/48 50/60/48
f 87/63/49 93/64/49 127/65/49 125/66/49
f 51/61/50 50/60/50 56/67/50 57/68/50
f 49/62/51 48/57/51 54/69/51 55/70/51
f 47/56/52 46/59/52 52/71/52 53/72/52
f 97/8/53 9/11/53 98/73/53 129/74/53
f 50/60/54 49/62/54 55/70/54 56/67/54
f 48/57/55 47/56/55 53/72/55 54/69/55
f 46/59/56 94/75/56 52/71/56
f 53/72/57 52/71/57 58/76/57 59/77/57
f 57/68/58 63/78/58 117/79/58 115/80/58
f 56/67/59 55/70/59 61/81/59 62/82/59
f 54/69/60 53/72/60 59/77/60 60/83/60
f 52/71/61 94/84/61 58/76/61
f 51/61/62 57/68/62 115/80/62 113/85/62
f 57/68/63 56/67/63 62/82/63 63/78/63
f 55/70/64 54/69/64 60/83/64 61/81/64
f 27/34/65 33/36/65 107/86/65 105/87/65
f 62/82/66 61/81/66 67/88/66 68/89/66
f 60/83/67 59/77/67 65/90/67 66/91/67
f 58/76/68 94/92/68 64/93/68
f 75/94/69 81/95/69 123/96/69 121/97/69
f 63/78/70 62/82/70 68/89/70 69/98/70
f 61/81/71 60/83/71 66/91/71 67/88/71
f 59/77/72 58/76/72 64/93/72 65/90/72
f 64/93/73 94/99/73 70/100/73
f 21/27/74 27/34/74 105/87/74 103/101/74
f 69/98/75 68/89/75 74/102/75 75/103/75
f 67/88/76 66/91/76 72/104/76 73/105/76
f 65/90/77 64/93/77 70/100/77 71/106/77
f 81/95/78 87/63/78 125/66/78 123/96/78
f 68/89/79 67/88/79 73/105/79 74/102/79
f 66/91/80 65/90/80 71/106/80 72/104/80
f 75/94/81 74/107/81 80/108/81 81/95/81
f 73/109/82 72/110/82 78/111/82 79/112/82
f 71/113/83 70/114/83 76/115/83 77/116/83
f 45/55/84 51/61/84 113/85/84 111/117/84
f 74/107/85 73/109/85 79/112/85 80/108/85
f 72/110/86 71/113/86 77/116/86 78/111/86
f 70/114/87 94/118/87 76/115/87
f 9/11/88 15/15/88 101/119/88 98/73/88
f 63/78/89 69/98/89 119/120/89 117/79/89
f 80/108/90 79/112/90 85/121/90 86/122/90
f 78/111/91 77/116/91 83/123/91 84/124/91
f 76/115/92 94/125/92 82/126/92
f 39/48/93 45/55/93 111/117/93 109/127/93
f 81/95/94 80/108/94 86/122/94 87/63/94
f 79/112/95 78/111/95 84/124/95 85/121/95
f 77/116/96 76/115/96 82/126/96 83/123/96
f 86/122/97 85/121/97 91/128/97 92/129/97
f 84/124/98 83/123/98 89/130/98 90/131/98
f 82/126/99 94/132/99 88/133/99
f 93/64/100 97/8/100 129/74/100 127/65/100
f 87/63/101 86/122/101 92/129/101 93/64/101
f 85/121/102 84/124/102 90/131/102 91/128/102
f 83/123/103 82/126/103 88/133/103 89/130/103
f 15/15/104 21/27/104 103/101/104 101/119/104
f 69/98/105 75/103/105 121/134/105 119/120/105
f 93/64/106 92/129/106 3/9/106 97/8/106
f 91/128/107 90/131/107 2/1/107 96/12/107
f 89/130/108 88/133/108 95/5/108 1/2/108
f 33/36/109 39/48/109 109/127/109 107/86/109
f 92/129/110 91/128/110 96/12/110 3/9/110
f 90/131/111 89/130/111 1/2/111 2/1/111
f 88/133/112 94/135/112 95/5/112
f 116/136/113 118/137/113 157/138/113 156/139/113
f 130/140/114 129/74/114 98/73/114 131/141/114
f 131/141/115 98/73/115 101/119/115 132/142/115
f 99/143/116 102/144/116 149/145/116 148/146/116
f 132/142/117 101/119/117 103/101/117 133/147/117
f 114/148/118 116/136/118 156/139/118 155/149/118
f 128/150/119 100/151/119 146/152/119 162/153/119
f 133/147/120 103/101/120 105/87/120 134/154/120
f 100/151/121 99/143/121 148/146/121 146/152/121
f 134/154/122 105/87/122 107/86/122 135/155/122
f 135/155/123 107/86/123 109/127/123 136/156/123
f 112/157/124 114/148/124 155/149/124 154/158/124
f 136/156/125 109/127/125 111/117/125 137/159/125
f 126/160/126 128/150/126 162/153/126 161/161/126
f 110/162/127 112/157/127 154/158/127 153/163/127
f 137/159/128 111/117/128 113/85/128 138/164/128
f 124/165/129 126/160/129 161/161/129 160/166/129
f 138/164/130 113/85/130 115/80/130 139/167/130
f 139/167/131 115/80/131 117/79/131 140/168/131
f 108/169/132 110/162/132 153/163/132 152/170/132
f 140/168/133 117/79/133 119/120/133 141/171/133
f 122/172/134 124/165/134 160/166/134 159/173/134
f 106/174/135 108/169/135 152/170/135 151/175/135
f 141/171/136 119/120/136 121/134/136 142/176/136
f 142/177/137 121/97/137 123/96/137 143/178/137
f 120/179/138 122/180/138 159/181/138 158/182/138
f 143/178/139 123/96/139 125/66/139 144/183/139
f 104/184/140 106/174/140 151/175/140 150/185/140
f 118/137/141 120/179/141 158/182/141 157/138/141
f 144/183/142 125/66/142 127/65/142 145/186/142
f 102/144/143 104/184/143 150/185/143 149/145/143
f 145/186/144 127/65/144 129/74/144 130/140/144
f 99/143/145 100/151/145 130/140/145 131/141/145
f 102/144/146 99/143/146 131/141/146 132/142/146
f 104/184/147 102/144/147 132/142/147 133/147/147
f 106/174/148 104/184/148 133/147/148 134/154/148
f 108/169/149 106/174/149 134/154/149 135/155/149
f 110/162/150 108/169/150 135/155/150 136/156/150
f 112/157/151 110/162/151 136/156/151 137/159/151
f 114/148/152 112/157/152 137/159/152 138/164/152
f 116/136/153 114/148/153 138/164/153 139/167/153
f 118/137/154 116/136/154 139/167/154 140/168/154
f 120/179/155 118/137/155 140/168/155 141/171/155
f 122/180/156 120/179/156 141/171/156 142/176/156
f 124/165/157 122/172/157 142/177/157 143/178/157
f 126/160/158 124/165/158 143/178/158 144/183/158
f 128/150/159 126/160/159 144/183/159 145/186/159
f 100/151/160 128/150/160 145/186/160 130/140/160
f 147/187/161 146/152/161 148/146/161
f 147/188/162 148/146/162 149/145/162
f 147/189/163 149/145/163 150/185/163
f 147/190/164 150/185/164 151/175/164
f 147/191/165 151/175/165 152/170/165
f 147/192/166 152/170/166 153/163/166
f 147/193/167 153/163/167 154/158/167
f 147/194/168 154/158/168 155/149/168
f 147/195/169 155/149/169 156/139/169
f 147/196/170 156/139/170 157/138/170
f 147/197/171 157/138/171 158/182/171
f 147/198/172 158/182/172 159/181/172
f 147/199/173 159/173/173 160/166/173
f 147/200/174 160/166/174 161/161/174
f 147/201/175 161/161/175 162/153/175
f 147/202/176 162/153/176 146/152/176
