# Blender v2.80 (sub 75) OBJ File: 'Assets_MasterFile.blend'
# www.blender.org
mtllib Smore.mtl
o Smores_Cube.006
v -0.573042 -0.266952 1.930578
v -0.921041 -0.266952 1.593235
v -0.892964 0.266952 1.612482
v -0.588919 0.266952 1.916526
v -0.921041 -0.266952 -1.593235
v -0.573042 -0.266952 -1.930578
v -0.588919 0.266952 -1.916526
v -0.892964 0.266952 -1.612482
v -0.801435 -0.071290 2.073816
v -0.801435 0.071290 2.073816
v -1.197618 0.071290 1.677634
v -1.197618 -0.071290 1.677634
v -0.801435 0.071290 -2.073816
v -0.801435 -0.071290 -2.073816
v -1.197618 -0.071290 -1.677634
v -1.197618 0.071290 -1.677634
v -1.103199 0.058620 1.379477
v -1.103199 -0.058620 1.379477
v -0.777427 -0.058620 1.705249
v -0.777427 0.058620 1.705249
v -0.777427 0.058620 -1.705249
v -0.777427 -0.058620 -1.705249
v -1.103199 -0.058620 -1.379477
v -1.103199 0.058620 -1.379477
v -0.801435 0.306226 2.073816
v -1.197618 0.306226 1.677634
v -1.197618 0.306226 -1.677634
v -0.801435 0.306226 -2.073816
v -1.197618 -0.306226 1.677634
v -0.801435 -0.306226 2.073816
v -0.801435 -0.306226 -2.073816
v -1.197618 -0.306226 -1.677634
v -0.938757 -0.306226 1.605374
v -0.583827 -0.306226 1.951181
v -0.583827 -0.306226 -1.951181
v -0.938757 -0.306226 -1.605374
v -0.596874 0.306226 1.937694
v -0.913318 0.306226 1.621250
v -0.913318 0.306226 -1.621250
v -0.596874 0.306226 -1.937694
v 0.000000 -0.071290 -2.073816
v 0.000000 0.071290 -2.073816
v 0.000000 -0.071290 2.073816
v 0.000000 0.071290 2.073816
v 0.000000 -0.306226 -2.073816
v 0.000000 0.306226 -2.073816
v 0.000000 -0.306226 2.073816
v 0.000000 0.306226 2.073816
v 0.573042 -0.266952 1.930578
v 0.921041 -0.266952 1.593235
v 0.892964 0.266952 1.612482
v 0.588919 0.266952 1.916526
v 0.921041 -0.266952 -1.593235
v 0.573042 -0.266952 -1.930578
v 0.588919 0.266952 -1.916526
v 0.892964 0.266952 -1.612482
v 0.801435 -0.071290 2.073816
v 0.801435 0.071290 2.073816
v 1.197618 0.071290 1.677634
v 1.197618 -0.071290 1.677634
v 0.801435 0.071290 -2.073816
v 0.801435 -0.071290 -2.073816
v 1.197618 -0.071290 -1.677634
v 1.197618 0.071290 -1.677634
v 1.103199 0.058620 1.379477
v 1.103199 -0.058620 1.379477
v 0.000000 0.058620 1.705249
v 0.000000 -0.058620 1.705249
v 0.000000 0.058620 -1.705249
v 0.000000 -0.058620 -1.705249
v 0.777427 -0.058620 1.705249
v 0.777427 0.058620 1.705249
v 0.777427 0.058620 -1.705249
v 0.777427 -0.058620 -1.705249
v 1.103199 -0.058620 -1.379477
v 1.103199 0.058620 -1.379477
v 0.801435 0.306226 2.073816
v 0.000000 0.266952 -1.916527
v 0.000000 0.266952 1.916527
v 1.197618 0.306226 1.677634
v 1.197618 0.306226 -1.677634
v 0.801435 0.306226 -2.073816
v 0.000000 -0.266952 -1.930578
v 0.000000 -0.266952 1.930578
v 1.197618 -0.306226 1.677634
v 0.801435 -0.306226 2.073816
v 0.801435 -0.306226 -2.073816
v 1.197618 -0.306226 -1.677634
v 0.000000 -0.306226 1.951181
v 0.000000 -0.306226 -1.951181
v 0.938757 -0.306226 1.605374
v 0.583827 -0.306226 1.951181
v 0.583827 -0.306226 -1.951181
v 0.938757 -0.306226 -1.605374
v 0.000000 0.306226 -1.937694
v 0.000000 0.306226 1.937694
v 0.596874 0.306226 1.937694
v 0.913318 0.306226 1.621250
v 0.913318 0.306226 -1.621250
v 0.596874 0.306226 -1.937694
vt 0.541667 0.875000
vt 0.625000 0.875000
vt 0.625000 0.958649
vt 0.541667 0.958649
vt 0.766417 0.509481
vt 0.826849 0.509481
vt 0.858583 0.527807
vt 0.858583 0.722193
vt 0.826849 0.740519
vt 0.766417 0.740519
vt 0.541667 0.291351
vt 0.625000 0.291351
vt 0.625000 0.375000
vt 0.541667 0.375000
vt 0.541667 0.023880
vt 0.625000 0.023880
vt 0.625000 0.226120
vt 0.541667 0.226120
vt 0.625000 1.000000
vt 0.541667 1.000000
vt 0.458333 0.291351
vt 0.375000 0.291351
vt 0.375000 0.226120
vt 0.458333 0.226120
vt 0.133585 0.525934
vt 0.169907 0.504958
vt 0.241415 0.504958
vt 0.241415 0.745042
vt 0.169907 0.745042
vt 0.133585 0.724066
vt 0.458333 0.958649
vt 0.458333 0.875000
vt 0.458333 0.875000
vt 0.458333 0.958649
vt 0.375000 0.958649
vt 0.458333 1.000000
vt 0.375000 1.000000
vt 0.458333 0.226120
vt 0.458333 0.291351
vt 0.375000 0.023880
vt 0.458333 0.023880
vt 0.458333 0.023880
vt 0.458333 0.375000
vt 0.375000 0.375000
vt 0.541667 0.375000
vt 0.541667 0.291351
vt 0.375000 0.875000
vt 0.541667 0.226120
vt 0.541667 0.958649
vt 0.541667 1.000000
vt 0.458333 1.000000
vt 0.541667 0.023880
vt 0.458333 0.375000
vt 0.541667 0.875000
vt 0.827764 0.741795
vt 0.860793 0.722721
vt 0.875000 0.726120
vt 0.833649 0.750000
vt 0.860792 0.527279
vt 0.827764 0.508205
vt 0.833649 0.500000
vt 0.875000 0.523880
vt 0.764208 0.741795
vt 0.750000 0.750000
vt 0.764207 0.508205
vt 0.750000 0.500000
vt 0.132350 0.724362
vt 0.169396 0.745755
vt 0.166351 0.750000
vt 0.125000 0.726120
vt 0.169396 0.504245
vt 0.132350 0.525638
vt 0.125000 0.523880
vt 0.166351 0.500000
vt 0.242650 0.504245
vt 0.250000 0.500000
vt 0.242650 0.745755
vt 0.250000 0.750000
vt 0.541667 0.958649
vt 0.625000 0.958649
vt 0.826849 0.740519
vt 0.858583 0.722193
vt 0.858583 0.527807
vt 0.826849 0.509481
vt 0.541667 0.291351
vt 0.625000 0.291351
vt 0.541667 0.023880
vt 0.541667 0.226120
vt 0.625000 0.226120
vt 0.625000 0.023880
vt 0.541667 1.000000
vt 0.625000 1.000000
vt 0.458333 0.291351
vt 0.458333 0.226120
vt 0.375000 0.226120
vt 0.375000 0.291351
vt 0.133585 0.525934
vt 0.133585 0.724066
vt 0.169907 0.745042
vt 0.169907 0.504958
vt 0.458333 0.958649
vt 0.458333 0.958649
vt 0.375000 0.958649
vt 0.375000 1.000000
vt 0.458333 1.000000
vt 0.458333 0.291351
vt 0.458333 0.226120
vt 0.375000 0.023880
vt 0.458333 0.023880
vt 0.458333 0.023880
vt 0.541667 0.291351
vt 0.541667 0.226120
vt 0.458333 1.000000
vt 0.541667 1.000000
vt 0.541667 0.958649
vt 0.541667 0.023880
vt 0.827764 0.741795
vt 0.833649 0.750000
vt 0.875000 0.726120
vt 0.860793 0.722721
vt 0.860792 0.527279
vt 0.875000 0.523880
vt 0.833649 0.500000
vt 0.827764 0.508205
vt 0.132350 0.724362
vt 0.125000 0.726120
vt 0.166351 0.750000
vt 0.169396 0.745755
vt 0.169396 0.504245
vt 0.166351 0.500000
vt 0.125000 0.523880
vt 0.132350 0.525638
vn 0.0000 0.0000 1.0000
vn 0.0000 1.0000 0.0000
vn 0.0000 0.0000 -1.0000
vn -1.0000 0.0000 0.0000
vn -0.7071 0.0000 -0.7071
vn -0.7071 0.0000 0.7071
vn 0.0000 -1.0000 0.0000
vn 0.0000 0.9994 0.0344
vn -0.0322 0.9990 -0.0322
vn -0.1330 0.9911 0.0000
vn 0.0000 -0.9994 -0.0344
vn -0.0322 -0.9990 -0.0322
vn -0.1330 -0.9911 0.0000
vn -0.0322 0.9990 0.0322
vn 0.0000 -0.9994 0.0344
vn 0.0000 0.9994 -0.0344
vn -0.0322 -0.9990 0.0322
vn 0.0000 -0.4645 -0.8855
vn 0.0000 -0.4645 0.8855
vn 0.9116 -0.4112 0.0000
vn 0.6102 -0.4831 0.6279
vn 0.6102 -0.4831 -0.6279
vn 0.0000 0.4744 0.8803
vn 0.0000 0.4744 -0.8803
vn 0.8878 0.4601 0.0000
vn 0.6262 0.4644 0.6262
vn 0.6262 0.4644 -0.6262
vn 1.0000 0.0000 0.0000
vn 0.7071 0.0000 -0.7071
vn 0.7071 0.0000 0.7071
vn 0.0322 0.9990 -0.0322
vn 0.1330 0.9911 0.0000
vn 0.0322 -0.9990 -0.0322
vn 0.1330 -0.9911 0.0000
vn 0.0322 0.9990 0.0322
vn 0.0322 -0.9990 0.0322
vn -0.9116 -0.4112 0.0000
vn -0.6102 -0.4831 0.6279
vn -0.6102 -0.4831 -0.6279
vn -0.8879 0.4601 0.0000
vn -0.6262 0.4644 0.6262
vn -0.6262 0.4644 -0.6262
usemtl None
s off
f 44/1/1 48/2/1 25/3/1 10/4/1
f 78/5/2 7/6/2 8/7/2 3/8/2 4/9/2 79/10/2
f 13/11/3 28/12/3 46/13/3 42/14/3
f 11/15/4 26/16/4 27/17/4 16/18/4
f 28/12/5 13/11/5 16/18/5 27/17/5
f 10/4/6 25/3/6 26/19/6 11/20/6
f 14/21/5 31/22/5 32/23/5 15/24/5
f 5/25/7 6/26/7 83/27/7 84/28/7 1/29/7 2/30/7
f 9/31/8 43/32/8 68/33/8 19/34/8
f 30/35/6 9/31/6 12/36/6 29/37/6
f 14/21/9 15/24/9 23/38/9 22/39/9
f 29/40/4 12/41/4 15/24/4 32/23/4
f 15/24/10 12/41/10 18/42/10 23/38/10
f 31/22/3 14/21/3 41/43/3 45/44/3
f 13/11/11 42/14/11 69/45/11 21/46/11
f 47/47/1 43/32/1 9/31/1 30/35/1
f 16/18/12 13/11/12 21/46/12 24/48/12
f 21/46/5 22/39/5 23/38/5 24/48/5
f 19/34/6 20/49/6 17/50/6 18/51/6
f 18/42/4 17/52/4 24/48/4 23/38/4
f 22/39/3 21/46/3 69/45/3 70/53/3
f 68/33/1 67/54/1 20/49/1 19/34/1
f 11/15/13 16/18/13 24/48/13 17/52/13
f 12/36/14 9/31/14 19/34/14 18/51/14
f 44/1/15 10/4/15 20/49/15 67/54/15
f 41/43/16 14/21/16 22/39/16 70/53/16
f 10/4/17 11/20/17 17/50/17 20/49/17
f 37/55/2 38/56/2 26/57/2 25/58/2
f 39/59/2 40/60/2 28/61/2 27/62/2
f 38/56/2 39/59/2 27/62/2 26/57/2
f 96/63/2 37/55/2 25/58/2 48/64/2
f 40/60/2 95/65/2 46/66/2 28/61/2
f 33/67/7 34/68/7 30/69/7 29/70/7
f 35/71/7 36/72/7 32/73/7 31/74/7
f 36/72/7 33/67/7 29/70/7 32/73/7
f 90/75/7 35/71/7 31/74/7 45/76/7
f 34/68/7 89/77/7 47/78/7 30/69/7
f 1/29/18 84/28/18 89/77/18 34/68/18
f 83/27/19 6/26/19 35/71/19 90/75/19
f 5/25/20 2/30/20 33/67/20 36/72/20
f 6/26/21 5/25/21 36/72/21 35/71/21
f 2/30/22 1/29/22 34/68/22 33/67/22
f 7/6/23 78/5/23 95/65/23 40/60/23
f 79/10/24 4/9/24 37/55/24 96/63/24
f 3/8/25 8/7/25 39/59/25 38/56/25
f 8/7/26 7/6/26 40/60/26 39/59/26
f 4/9/27 3/8/27 38/56/27 37/55/27
f 44/1/1 58/79/1 77/80/1 48/2/1
f 78/5/2 79/10/2 52/81/2 51/82/2 56/83/2 55/84/2
f 61/85/3 42/14/3 46/13/3 82/86/3
f 59/87/28 64/88/28 81/89/28 80/90/28
f 82/86/29 81/89/29 64/88/29 61/85/29
f 58/79/30 59/91/30 80/92/30 77/80/30
f 62/93/29 63/94/29 88/95/29 87/96/29
f 53/97/7 50/98/7 49/99/7 84/28/7 83/27/7 54/100/7
f 57/101/8 71/102/8 68/33/8 43/32/8
f 86/103/30 85/104/30 60/105/30 57/101/30
f 62/93/31 74/106/31 75/107/31 63/94/31
f 85/108/28 88/95/28 63/94/28 60/109/28
f 63/94/32 75/107/32 66/110/32 60/109/32
f 87/96/3 45/44/3 41/43/3 62/93/3
f 61/85/11 73/111/11 69/45/11 42/14/11
f 47/47/1 86/103/1 57/101/1 43/32/1
f 64/88/33 76/112/33 73/111/33 61/85/33
f 73/111/29 76/112/29 75/107/29 74/106/29
f 71/102/30 66/113/30 65/114/30 72/115/30
f 66/110/28 75/107/28 76/112/28 65/116/28
f 74/106/3 70/53/3 69/45/3 73/111/3
f 68/33/1 71/102/1 72/115/1 67/54/1
f 59/87/34 65/116/34 76/112/34 64/88/34
f 60/105/35 66/113/35 71/102/35 57/101/35
f 44/1/15 67/54/15 72/115/15 58/79/15
f 41/43/16 70/53/16 74/106/16 62/93/16
f 58/79/36 72/115/36 65/114/36 59/91/36
f 97/117/2 77/118/2 80/119/2 98/120/2
f 99/121/2 81/122/2 82/123/2 100/124/2
f 98/120/2 80/119/2 81/122/2 99/121/2
f 96/63/2 48/64/2 77/118/2 97/117/2
f 100/124/2 82/123/2 46/66/2 95/65/2
f 91/125/7 85/126/7 86/127/7 92/128/7
f 93/129/7 87/130/7 88/131/7 94/132/7
f 94/132/7 88/131/7 85/126/7 91/125/7
f 90/75/7 45/76/7 87/130/7 93/129/7
f 92/128/7 86/127/7 47/78/7 89/77/7
f 49/99/18 92/128/18 89/77/18 84/28/18
f 83/27/19 90/75/19 93/129/19 54/100/19
f 53/97/37 94/132/37 91/125/37 50/98/37
f 54/100/38 93/129/38 94/132/38 53/97/38
f 50/98/39 91/125/39 92/128/39 49/99/39
f 55/84/23 100/124/23 95/65/23 78/5/23
f 79/10/24 96/63/24 97/117/24 52/81/24
f 51/82/40 98/120/40 99/121/40 56/83/40
f 56/83/41 99/121/41 100/124/41 55/84/41
f 52/81/42 97/117/42 98/120/42 51/82/42
